<svg width="28" height="24" viewBox="0 0 28 24" fill="none" xmlns="http://www.w3.org/2000/svg">
<g clip-path="url(#clip0_21146_224)">
<path d="M11.3119 17.709C9.70386 17.709 8.41113 18.8845 8.41113 20.3119C8.41113 21.7673 9.70386 22.9428 11.3119 22.9428C12.9199 22.9428 14.2127 21.7673 14.2127 20.3119C14.2127 18.8565 12.9199 17.709 11.3119 17.709ZM11.3119 21.2635C10.7444 21.2635 10.3029 20.8437 10.3029 20.3119C10.3029 19.8081 10.7444 19.3883 11.3119 19.3883C11.8794 19.3883 12.3209 19.8081 12.3209 20.3119C12.3209 20.8157 11.8794 21.2635 11.3119 21.2635Z" fill="#9758A6"/>
<path d="M22.8832 17.709C21.2752 17.709 19.9824 18.8845 19.9824 20.3119C19.9824 21.7673 21.2752 22.9428 22.8832 22.9428C24.4912 22.9428 25.784 21.7673 25.784 20.3119C25.7524 18.8565 24.4597 17.709 22.8832 17.709ZM22.8832 21.2635C22.3156 21.2635 21.8742 20.8437 21.8742 20.3119C21.8742 19.8081 22.3156 19.3883 22.8832 19.3883C23.4507 19.3883 23.8921 19.8081 23.8921 20.3119C23.8606 20.8157 23.4192 21.2635 22.8832 21.2635Z" fill="#9758A6"/>
<path d="M26.856 4.27463C26.6668 4.05073 26.3831 3.93877 26.0993 3.93877H7.40201L6.99212 2.76326C6.61376 1.69971 5.54174 1 4.28054 1H1.34824C0.812234 1 0.402344 1.36385 0.402344 1.83965C0.402344 2.31545 0.812234 2.6793 1.34824 2.6793H4.28054C4.69043 2.6793 5.06879 2.90321 5.19491 3.26705L8.63168 12.895L8.60015 12.979C8.19026 13.8466 8.28485 14.8262 8.85239 15.6379C9.45146 16.4216 10.4289 16.8974 11.5009 16.8974H24.4282C24.9642 16.8974 25.3741 16.5335 25.3741 16.0577C25.3741 15.5819 24.9642 15.2181 24.4282 15.2181H11.5009C11.0595 15.2181 10.6811 15.0222 10.4604 14.7143C10.2397 14.4064 10.1766 14.0146 10.3343 13.6787H21.4013C22.9148 13.6787 24.239 12.8111 24.712 11.5236L27.0137 5.03032C27.0767 4.77842 27.0137 4.49854 26.856 4.27463ZM21.3698 11.9994H10.2712L8.00108 5.61807H24.8066L22.9148 11.0198C22.6625 11.6076 22.0635 11.9994 21.3698 11.9994Z" fill="#9758A6"/>
</g>
<defs>
<clipPath id="clip0_21146_224">
<rect width="26.6355" height="24" fill="white" transform="translate(0.402344)"/>
</clipPath>
</defs>
</svg>
