<svg width="27" height="24" viewBox="0 0 27 24" fill="none" xmlns="http://www.w3.org/2000/svg">
<path fill-rule="evenodd" clip-rule="evenodd" d="M17.9803 5.53846C17.9803 7.57767 16.1457 9.23077 13.8826 9.23077C11.6194 9.23077 9.78481 7.57767 9.78481 5.53846C9.78481 3.49926 11.6194 1.84615 13.8826 1.84615C16.1457 1.84615 17.9803 3.49926 17.9803 5.53846ZM20.0292 5.53846C20.0292 8.59726 17.2772 11.0769 13.8826 11.0769C10.4879 11.0769 7.73593 8.59726 7.73593 5.53846C7.73593 2.47966 10.4879 0 13.8826 0C17.2772 0 20.0292 2.47966 20.0292 5.53846ZM5.68706 20.3077C5.68706 17.2488 8.43901 14.7692 11.8337 14.7692H15.9314C19.3262 14.7692 22.0781 17.2488 22.0781 20.3077V22.1538H5.68706V20.3077ZM3.63818 20.3077C3.63818 16.2294 7.30743 12.9231 11.8337 12.9231H15.9314C20.4576 12.9231 24.1269 16.2294 24.1269 20.3077V22.1538V24H22.0781H5.68706H3.63818V22.1538V20.3077Z" fill="#9758A6"/>
</svg>
